<svg width="26" height="25" viewBox="0 0 26 25" fill="none" xmlns="http://www.w3.org/2000/svg">
<g clip-path="url(#clip0_68_42)">
<path d="M25.2674 12.5C25.2674 5.59644 19.6666 0 12.7576 0C5.84868 0 0.247864 5.59644 0.247864 12.5C0.247864 18.739 4.82248 23.9104 10.803 24.8481V16.1133H7.62668V12.5H10.803V9.74609C10.803 6.61328 12.6707 4.88281 15.5281 4.88281C16.8964 4.88281 18.3284 5.12695 18.3284 5.12695V8.20312H16.751C15.197 8.20312 14.7123 9.16675 14.7123 10.1562V12.5H18.1818L17.6272 16.1133H14.7123V24.8481C20.6928 23.9104 25.2674 18.739 25.2674 12.5Z" fill="#E0B441"/>
</g>
<defs>
<clipPath id="clip0_68_42">
<rect width="25.0195" height="25" fill="white" transform="translate(0.247864)"/>
</clipPath>
</defs>
</svg>
