<svg width="26" height="25" viewBox="0 0 26 25" fill="none" xmlns="http://www.w3.org/2000/svg">
<g clip-path="url(#clip0_68_44)">
<path d="M12.7302 2.25098C16.0727 2.25098 16.4685 2.26562 17.783 2.32422C19.0047 2.37793 19.6644 2.58301 20.1042 2.75391C20.6857 2.97852 21.1059 3.25195 21.5408 3.68652C21.9806 4.12598 22.2494 4.54102 22.4742 5.12207C22.6452 5.56152 22.8504 6.22559 22.9042 7.44141C22.9628 8.75977 22.9775 9.15527 22.9775 12.4902C22.9775 15.8301 22.9628 16.2256 22.9042 17.5391C22.8504 18.7598 22.6452 19.4189 22.4742 19.8584C22.2494 20.4395 21.9757 20.8594 21.5408 21.2939C21.101 21.7334 20.6857 22.002 20.1042 22.2266C19.6644 22.3975 18.9998 22.6025 17.783 22.6563C16.4636 22.7148 16.0678 22.7295 12.7302 22.7295C9.38778 22.7295 8.99196 22.7148 7.67746 22.6563C6.4558 22.6025 5.7961 22.3975 5.35631 22.2266C4.7748 22.002 4.35455 21.7285 3.91964 21.2939C3.47984 20.8545 3.21108 20.4395 2.98629 19.8584C2.81526 19.4189 2.61002 18.7549 2.55627 17.5391C2.49763 16.2207 2.48297 15.8252 2.48297 12.4902C2.48297 9.15039 2.49763 8.75488 2.55627 7.44141C2.61002 6.2207 2.81526 5.56152 2.98629 5.12207C3.21108 4.54102 3.48473 4.12109 3.91964 3.68652C4.35943 3.24707 4.7748 2.97852 5.35631 2.75391C5.7961 2.58301 6.46069 2.37793 7.67746 2.32422C8.99196 2.26562 9.38778 2.25098 12.7302 2.25098ZM12.7302 0C9.33402 0 8.90889 0.0146484 7.57484 0.0732422C6.24567 0.131836 5.33187 0.34668 4.54024 0.654297C3.7144 0.976562 3.01561 1.40137 2.32171 2.09961C1.62292 2.79297 1.19779 3.49121 0.875267 4.31152C0.56741 5.10742 0.352398 6.01562 0.293758 7.34375C0.235119 8.68164 0.220459 9.10645 0.220459 12.5C0.220459 15.8936 0.235119 16.3184 0.293758 17.6514C0.352398 18.9795 0.56741 19.8926 0.875267 20.6836C1.19779 21.5088 1.62292 22.207 2.32171 22.9004C3.01561 23.5938 3.7144 24.0234 4.53535 24.3408C5.33187 24.6484 6.24079 24.8633 7.56995 24.9219C8.904 24.9805 9.32914 24.9951 12.7253 24.9951C16.1216 24.9951 16.5467 24.9805 17.8807 24.9219C19.2099 24.8633 20.1237 24.6484 20.9153 24.3408C21.7363 24.0234 22.4351 23.5938 23.129 22.9004C23.8229 22.207 24.2529 21.5088 24.5705 20.6885C24.8784 19.8926 25.0934 18.9844 25.152 17.6563C25.2107 16.3232 25.2253 15.8984 25.2253 12.5049C25.2253 9.11133 25.2107 8.68652 25.152 7.35352C25.0934 6.02539 24.8784 5.11231 24.5705 4.32129C24.2627 3.49121 23.8375 2.79297 23.1388 2.09961C22.4449 1.40625 21.7461 0.976563 20.9251 0.65918C20.1286 0.351562 19.2197 0.136719 17.8905 0.078125C16.5516 0.0146484 16.1264 0 12.7302 0Z" fill="#E0B441"/>
<path d="M12.7302 6.0791C9.18255 6.0791 6.30432 8.95508 6.30432 12.5C6.30432 16.0449 9.18255 18.9209 12.7302 18.9209C16.2779 18.9209 19.1562 16.0449 19.1562 12.5C19.1562 8.95508 16.2779 6.0791 12.7302 6.0791ZM12.7302 16.665C10.4286 16.665 8.56194 14.7998 8.56194 12.5C8.56194 10.2002 10.4286 8.33496 12.7302 8.33496C15.0318 8.33496 16.8985 10.2002 16.8985 12.5C16.8985 14.7998 15.0318 16.665 12.7302 16.665Z" fill="#E0B441"/>
<path d="M20.9104 5.82514C20.9104 6.65522 20.2361 7.32416 19.4102 7.32416C18.5795 7.32416 17.91 6.65033 17.91 5.82514C17.91 4.99506 18.5844 4.32611 19.4102 4.32611C20.2361 4.32611 20.9104 4.99994 20.9104 5.82514Z" fill="#E0B441"/>
</g>
<defs>
<clipPath id="clip0_68_44">
<rect width="25.0195" height="25" fill="white" transform="translate(0.220459)"/>
</clipPath>
</defs>
</svg>
