<svg width="26" height="25" viewBox="0 0 26 25" fill="none" xmlns="http://www.w3.org/2000/svg">
<g clip-path="url(#clip0_68_43)">
<path d="M8.1461 22.6563C17.5851 22.6563 22.7493 14.8403 22.7493 8.06447C22.7493 7.84474 22.7444 7.62013 22.7346 7.40041C23.7392 6.67447 24.6062 5.7753 25.2948 4.74513C24.3591 5.16107 23.3658 5.43272 22.3486 5.5508C23.4196 4.90931 24.2216 3.90156 24.6057 2.71437C23.5982 3.31103 22.4963 3.73192 21.3473 3.959C20.5732 3.13707 19.5496 2.59286 18.4349 2.4105C17.3202 2.22814 16.1764 2.41779 15.1803 2.95013C14.1843 3.48247 13.3915 4.32785 12.9245 5.35556C12.4575 6.38328 12.3424 7.53609 12.5968 8.63576C10.5567 8.53346 8.56078 8.00389 6.73857 7.08138C4.91636 6.15888 3.30851 4.86403 2.01925 3.28078C1.36397 4.40966 1.16346 5.74549 1.45846 7.01679C1.75345 8.28809 2.52182 9.39946 3.6074 10.125C2.79241 10.0992 1.99528 9.87991 1.28185 9.48537V9.54884C1.28112 10.7335 1.691 11.8819 2.44181 12.7987C3.19261 13.7156 4.23802 14.3444 5.4003 14.5781C4.64535 14.7845 3.85298 14.8146 3.08453 14.666C3.41251 15.6849 4.05063 16.576 4.90984 17.215C5.76905 17.854 6.80648 18.209 7.87734 18.2305C6.05933 19.6574 3.81357 20.4314 1.50175 20.4278C1.09177 20.4271 0.682191 20.402 0.275208 20.3526C2.62377 21.8581 5.35577 22.6577 8.1461 22.6563Z" fill="#E0B441"/>
</g>
<defs>
<clipPath id="clip0_68_43">
<rect width="25.0195" height="25" fill="white" transform="translate(0.275208)"/>
</clipPath>
</defs>
</svg>
